<svg version="1.2" xmlns="http://www.w3.org/2000/svg" viewBox="0 0 100 100" width="100" height="100"><style>.a{fill:none;stroke:#0284c7;stroke-linecap:round;stroke-linejoin:round;stroke-width:8.3}</style><path class="a" d="m18.8 68.8c-6.3 5.2-8.4 20.8-8.4 20.8 0 0 15.6-2.1 20.9-8.3 2.9-3.5 2.9-8.9-0.4-12.2q-1.2-1.1-2.8-1.8-1.5-0.6-3.2-0.7-1.7 0-3.3 0.5-1.6 0.6-2.8 1.7z"/><path class="a" d="m50 62.5l-12.5-12.5q0.8-2.2 1.8-4.3 0.9-2.1 2-4.1 1-2.1 2.1-4.1 1.2-2 2.4-4c2.5-3.8 5.4-7.4 8.7-10.5 3.3-3.1 7-5.8 11-8 4-2.2 8.2-3.9 12.6-5 4.5-1.1 9-1.7 13.6-1.7 0 11.4-3.3 31.3-25 45.9q-2 1.2-4 2.4-2.1 1.1-4.2 2.2-2 1-4.2 1.9-2.1 1-4.3 1.8z"/><path class="a" d="m37.5 50h-20.8c0 0 2.3-12.6 8.3-16.7 6.8-4.5 20.8 0 20.8 0"/><path class="a" d="m50 62.5v20.8c0 0 12.6-2.3 16.7-8.3 4.5-6.8 0-20.8 0-20.8"/></svg>